<svg id="ea-logo1" xmlns="http://www.w3.org/2000/svg" viewBox="0 0 792 792"><defs><style>.cls-1{fill:#000002}.cls-1,.cls-3,.cls-4,.cls-5{fill-rule:evenodd}.cls-3{fill:#f7a31c}.cls-4{fill:#ea3e25}.cls-5{fill:#ed1c24}</style></defs><path class="cls-1" d="M89.52 510.04H32.86v76.56h57.2v-12.14H46.2v-20.45h38.39v-12.14H46.2v-19.69h43.32v-12.14zM171.99 586.6l-27.78-39.16 26.69-37.4h-15.43l-19.14 27.45-19.03-27.45h-15.86l26.8 37.62-27.9 38.94h15.43L136 557.62l20.13 28.98h15.86zM247 574.35l-8.64-8.75a47.21 47.21 0 0 1-9.95 7.27 25.26 25.26 0 0 1-12 2.68 24 24 0 0 1-10.12-2.13 24.64 24.64 0 0 1-8-5.85 26.57 26.57 0 0 1-5.25-8.7 30.17 30.17 0 0 1-1.86-10.66A29.77 29.77 0 0 1 193 537.6a26.16 26.16 0 0 1 5.25-8.59 25.06 25.06 0 0 1 8-5.79 23.85 23.85 0 0 1 10.12-2.14 25.38 25.38 0 0 1 11.7 2.63 43.41 43.41 0 0 1 9.74 6.89l8.64-10a53.13 53.13 0 0 0-5.8-4.82 37.34 37.34 0 0 0-6.67-3.77 38.53 38.53 0 0 0-7.93-2.46 48.56 48.56 0 0 0-9.57-.88 39.81 39.81 0 0 0-16 3.12A38.11 38.11 0 0 0 179.92 533a41 41 0 0 0-2.9 15.42A40.58 40.58 0 0 0 180 564a38.57 38.57 0 0 0 8.15 12.52 38.15 38.15 0 0 0 12.31 8.37 38.85 38.85 0 0 0 15.54 3.02 47.74 47.74 0 0 0 9.79-.93 35.33 35.33 0 0 0 8.15-2.73 39.9 39.9 0 0 0 6.94-4.27 49 49 0 0 0 6.12-5.63zM317.79 510.04h-56.66v76.56h57.21v-12.14h-43.86v-20.45h38.39v-12.14h-38.39v-19.69h43.31v-12.14zM334.42 586.6h53.59v-12.14h-40.25v-64.42h-13.34v76.56zM458.78 510.04h-56.66v76.56h57.21v-12.14h-43.86v-20.45h38.39v-12.14h-38.39v-19.69h43.31v-12.14zM540.38 586.6l-20.67-29a28.36 28.36 0 0 0 7.38-3.12 22.56 22.56 0 0 0 5.74-4.92 22.11 22.11 0 0 0 3.78-6.68 27.39 27.39 0 0 0-.6-18.7 20.75 20.75 0 0 0-5.64-7.66 25.83 25.83 0 0 0-9-4.81 38.83 38.83 0 0 0-11.83-1.71h-34.13v76.6h13.34v-26.69h16.9l18.87 26.69zM524.3 535a11.53 11.53 0 0 1-4.28 9.44Q515.74 548 508.5 548h-19.75v-25.82h19.64c5.05 0 9 1.07 11.74 3.24s4.17 5.36 4.17 9.58zM594.09 509.49h-12.47l-33.69 77.11h13.78l7.88-18.48h36.2l7.77 18.48h14.22l-33.69-77.11zm6.78 46.7h-26.36l13.12-30.62zM663.43 522.5h24.29v-12.46h-62.13v12.46h24.28v64.1h13.56v-64.1zM758.59 510.04h-56.66v76.56h57.21v-12.14h-43.86v-20.45h38.39v-12.14h-38.39v-19.69h43.31v-12.14zM214.87 613.2h-5.15l-13.9 31.8h5.69l3.25-7.63h14.93l3.21 7.63h5.86l-13.89-31.8zm2.79 19.27h-10.87l5.41-12.63zM290.07 622.36v22.66h5.5v-31.59h-5.91l-9.61 14.94-9.61-14.94h-5.91v31.59h5.5v-22.57l9.89 14.81h.18l9.97-14.9zM357.42 613.43h-23.38v31.59h23.6v-5.01h-18.09v-8.44h15.84v-5.01h-15.84v-8.12h17.87v-5.01zM421.43 645l-8.53-12a11.57 11.57 0 0 0 3.05-1.29 9 9 0 0 0 3.92-4.78 10.27 10.27 0 0 0 .57-3.54 10.42 10.42 0 0 0-.81-4.18 8.65 8.65 0 0 0-2.33-3.16 10.64 10.64 0 0 0-3.7-2 15.91 15.91 0 0 0-4.89-.7h-14.08V645h5.5v-11h7l7.79 11zm-6.63-21.28a4.79 4.79 0 0 1-1.77 3.9 7.23 7.23 0 0 1-4.75 1.45h-8.15v-10.63h8.1a7.71 7.71 0 0 1 4.85 1.34 4.68 4.68 0 0 1 1.72 3.96z"/><path fill="#000002" d="M457.92 613.43h5.51v31.59h-5.51z"/><path class="cls-1" d="M529.73 640l-3.56-3.61a18.83 18.83 0 0 1-4.11 3 10.38 10.38 0 0 1-5 1.11 9.85 9.85 0 0 1-4.18-.88 10.3 10.3 0 0 1-3.31-2.41 10.89 10.89 0 0 1-2.17-3.59 12.53 12.53 0 0 1-.77-4.4 12.3 12.3 0 0 1 .77-4.38 10.66 10.66 0 0 1 2.17-3.54 10.25 10.25 0 0 1 3.31-2.39 9.85 9.85 0 0 1 4.18-.88 10.53 10.53 0 0 1 4.83 1.08 17.81 17.81 0 0 1 4 2.84l3.57-4.1a20.5 20.5 0 0 0-2.39-2 15.76 15.76 0 0 0-2.76-1.56 16.26 16.26 0 0 0-3.27-1 20 20 0 0 0-4-.36 16.54 16.54 0 0 0-6.58 1.28 15.77 15.77 0 0 0-5.15 3.52 16 16 0 0 0-3.36 5.22 17.45 17.45 0 0 0 0 12.77 15.65 15.65 0 0 0 8.44 8.62 16.08 16.08 0 0 0 6.41 1.26 20.17 20.17 0 0 0 4-.38 14.91 14.91 0 0 0 3.36-1.13 17.27 17.27 0 0 0 2.86-1.76 19.76 19.76 0 0 0 2.71-2.33zM582.24 613.2h-5.15l-13.9 31.8h5.69l3.25-7.63h14.94l3.2 7.63h5.87l-13.9-31.82zm2.8 19.27h-10.88l5.42-12.63z"/><path class="cls-3" d="M441.35 284.64l-23.91 23.92-23.92 23.92-8.75-32.67-8.76-32.67 32.67 8.75 32.67 8.75z"/><path class="cls-4" d="M376.01 267.14l32.67 8.75 32.67 8.75-8.75-32.67-8.75-32.67-23.92 23.92-23.92 23.92z"/><path class="cls-5" d="M489.19 236.81l-23.92 23.92-23.92 23.91-8.75-32.67-8.75-32.67 32.67 8.76 32.67 8.75z"/><path class="cls-3" d="M466.91 381.94l-23.92 23.92-23.91 23.92-8.76-32.67-8.75-32.68 32.67 8.76 32.67 8.75z"/><path class="cls-4" d="M401.57 364.44l32.67 8.75 32.67 8.75-8.75-32.67-8.76-32.67-23.91 23.92-23.92 23.92z"/><path class="cls-5" d="M514.75 334.11l-23.92 23.92-23.92 23.91-8.75-32.67-8.76-32.67 32.67 8.76 32.68 8.75z"/><path fill="#1e459d" fill-rule="evenodd" d="M342.61 259.62l-8.76-32.67-8.75-32.67 32.67 8.75 32.67 8.75-23.92 23.92-23.91 23.92z"/><path fill="#23368e" fill-rule="evenodd" d="M372.93 146.44l-23.91 23.92-23.92 23.92 32.67 8.75 32.67 8.75-8.75-32.67-8.76-32.67z"/><path fill="#1b2368" fill-rule="evenodd" d="M390.44 211.78l-8.75-32.67-8.76-32.67 32.67 8.76 32.67 8.75-23.91 23.92-23.92 23.91z"/><path fill="#2d4ea2" fill-rule="evenodd" d="M325.1 194.28l-23.92 23.91-23.92 23.92 32.68 8.75 32.67 8.76-8.76-32.67-8.75-32.67z"/><path fill="#2b54a5" fill-rule="evenodd" d="M294.77 307.45l-8.75-32.67-8.76-32.67 32.68 8.75 32.67 8.76-23.92 23.91-23.92 23.92z"/><path fill="#355caa" fill-rule="evenodd" d="M342.61 259.62l-23.92 23.91-23.92 23.92 32.67 8.75 32.68 8.76-8.76-32.67-8.75-32.67z"/><path fill="#3b6fb7" fill-rule="evenodd" d="M312.28 372.79l-8.75-32.67-8.76-32.67 32.67 8.75 32.68 8.76-23.92 23.92-23.92 23.91z"/><path fill="#4994d0" fill-rule="evenodd" d="M360.12 324.96l-23.92 23.92-23.92 23.91 32.67 8.76 32.67 8.75-8.75-32.67-8.75-32.67z"/><path fill="#44c2f1" fill-rule="evenodd" d="M329.79 438.13l-8.75-32.67-8.76-32.67 32.67 8.76 32.67 8.75-23.91 23.92-23.92 23.91z"/><path fill="#76cfe5" fill-rule="evenodd" d="M377.62 390.3l-23.91 23.92-23.92 23.91 32.67 8.76 32.67 8.75-8.75-32.67-8.76-32.67z"/></svg>